<svg xmlns="http://www.w3.org/2000/svg" xmlns:xlink="http://www.w3.org/1999/xlink" width="100" zoomAndPan="magnify" viewBox="0 0 75 74.999997" height="100" preserveAspectRatio="xMidYMid meet" version="1.0"><defs><clipPath id="7f8b33a856"><path d="M 11.648438 11.746094 L 63.398438 11.746094 L 63.398438 63 L 11.648438 63 Z M 11.648438 11.746094 " clip-rule="nonzero"/></clipPath></defs><g clip-path="url(#7f8b33a856)"><path fill="#ffffff" d="M 29.546875 19.992188 C 29.113281 19.992188 28.765625 19.644531 28.765625 19.210938 C 28.765625 18.78125 29.113281 18.429688 29.546875 18.429688 L 45.453125 18.429688 C 45.882812 18.429688 46.230469 18.78125 46.230469 19.210938 C 46.230469 19.644531 45.882812 19.992188 45.453125 19.992188 Z M 19.039062 24.542969 C 19.039062 24.109375 19.390625 23.761719 19.820312 23.761719 C 20.246094 23.761719 20.597656 24.109375 20.597656 24.542969 L 20.597656 29.804688 L 23.644531 29.804688 C 24.074219 29.804688 24.425781 30.15625 24.425781 30.585938 C 24.425781 31.019531 24.074219 31.367188 23.644531 31.367188 L 19.816406 31.367188 C 19.386719 31.367188 19.039062 31.019531 19.039062 30.585938 Z M 52.441406 26.984375 L 49.839844 24.550781 C 49.527344 24.261719 49.511719 23.769531 49.804688 23.457031 C 50.101562 23.144531 50.589844 23.128906 50.902344 23.417969 L 53.222656 25.589844 L 55.542969 23.417969 C 55.855469 23.128906 56.347656 23.144531 56.640625 23.457031 C 56.929688 23.769531 56.914062 24.261719 56.601562 24.550781 L 54.003906 26.984375 L 54.003906 30.804688 C 54.003906 31.234375 53.652344 31.582031 53.222656 31.582031 C 52.789062 31.582031 52.441406 31.234375 52.441406 30.804688 Z M 48.953125 23.382812 C 49.347656 23.550781 49.535156 24.007812 49.371094 24.40625 C 49.203125 24.800781 48.746094 24.988281 48.347656 24.824219 C 46.507812 24.050781 44.476562 25.402344 44.476562 27.394531 C 44.476562 29.386719 46.507812 30.742188 48.347656 29.964844 C 48.742188 29.800781 49.203125 29.984375 49.371094 30.382812 C 49.535156 30.78125 49.347656 31.234375 48.953125 31.402344 C 46.09375 32.605469 42.917969 30.484375 42.917969 27.394531 C 42.917969 24.304688 46.09375 22.183594 48.953125 23.382812 Z M 37.59375 30.839844 C 37.421875 31.234375 36.964844 31.414062 36.570312 31.242188 C 36.179688 31.070312 36 30.609375 36.171875 30.21875 L 38.902344 23.949219 C 39.175781 23.316406 40.0625 23.34375 40.324219 23.949219 L 41.863281 27.476562 C 41.910156 27.550781 41.949219 27.636719 41.96875 27.726562 L 43.054688 30.21875 C 43.226562 30.609375 43.046875 31.070312 42.652344 31.242188 C 42.261719 31.414062 41.800781 31.234375 41.628906 30.835938 L 40.691406 28.6875 L 38.53125 28.6875 Z M 39.613281 26.207031 L 39.210938 27.128906 L 40.011719 27.128906 Z M 34.996094 23.339844 C 35.425781 23.339844 35.773438 23.691406 35.773438 24.117188 C 35.773438 24.550781 35.425781 24.898438 34.996094 24.898438 C 33.992188 24.898438 33.003906 24.972656 32.320312 25.351562 C 31.734375 25.671875 31.34375 26.285156 31.34375 27.410156 C 31.34375 29.273438 32.363281 29.757812 34.003906 29.886719 C 34.128906 29.894531 34.214844 29.816406 34.214844 29.691406 L 34.214844 28.359375 L 32.8125 28.359375 C 32.378906 28.359375 32.03125 28.011719 32.03125 27.582031 C 32.03125 27.148438 32.378906 26.800781 32.8125 26.800781 L 34.996094 26.800781 C 35.425781 26.800781 35.773438 27.148438 35.773438 27.582031 L 35.773438 29.691406 C 35.773438 30.71875 34.898438 31.523438 33.878906 31.441406 C 31.5 31.25 29.785156 30.175781 29.785156 27.410156 C 29.785156 25.605469 30.496094 24.574219 31.570312 23.984375 C 32.546875 23.445312 33.777344 23.339844 34.996094 23.339844 Z M 28.851562 29.804688 C 29.277344 29.804688 29.628906 30.15625 29.628906 30.585938 C 29.628906 31.019531 29.277344 31.367188 28.851562 31.367188 L 25.375 31.367188 C 24.949219 31.367188 24.597656 31.019531 24.597656 30.585938 L 24.597656 24.542969 C 24.597656 24.09375 24.953125 23.742188 25.445312 23.765625 L 28.835938 23.765625 C 29.265625 23.765625 29.613281 24.113281 29.613281 24.542969 C 29.613281 24.972656 29.265625 25.320312 28.835938 25.320312 L 26.15625 25.320312 L 26.15625 26.714844 L 28.84375 26.714844 C 29.277344 26.714844 29.625 27.0625 29.625 27.496094 C 29.625 27.921875 29.277344 28.273438 28.84375 28.273438 L 26.15625 28.273438 L 26.15625 29.804688 Z M 37.496094 39.960938 C 42.300781 39.960938 46.199219 43.855469 46.199219 48.660156 C 46.199219 53.46875 42.300781 57.363281 37.496094 57.363281 C 32.691406 57.363281 28.796875 53.46875 28.796875 48.660156 C 28.796875 43.855469 32.691406 39.960938 37.496094 39.960938 Z M 42.550781 43.609375 C 39.761719 40.820312 35.234375 40.820312 32.449219 43.609375 C 29.660156 46.398438 29.660156 50.921875 32.449219 53.710938 C 35.234375 56.5 39.761719 56.5 42.550781 53.710938 C 45.335938 50.921875 45.335938 46.398438 42.550781 43.609375 Z M 43.742188 36.058594 L 44.617188 37.605469 C 44.855469 38.03125 45.210938 38.285156 45.691406 38.378906 L 47.4375 38.710938 C 48.335938 38.886719 49.078125 39.429688 49.527344 40.171875 L 51.679688 40.171875 C 52.050781 37.078125 54.585938 34.671875 57.679688 34.324219 L 57.679688 22.070312 C 54.585938 21.722656 52.050781 19.3125 51.679688 16.222656 L 23.316406 16.222656 C 22.945312 19.3125 20.414062 21.722656 17.316406 22.070312 L 17.316406 34.324219 C 20.414062 34.671875 22.945312 37.078125 23.316406 40.167969 L 25.457031 40.167969 C 25.90625 39.496094 26.601562 39 27.445312 38.828125 L 29.1875 38.472656 C 29.660156 38.375 30.015625 38.113281 30.25 37.691406 L 31.109375 36.132812 C 31.898438 34.699219 33.652344 34.117188 35.140625 34.792969 L 36.761719 35.53125 C 37.207031 35.730469 37.640625 35.730469 38.085938 35.523438 L 39.695312 34.769531 C 41.171875 34.074219 42.933594 34.636719 43.742188 36.058594 Z M 49.976562 41.730469 C 49.984375 42.066406 49.890625 42.730469 49.851562 43.082031 L 61.785156 43.082031 L 61.785156 13.308594 L 13.210938 13.308594 L 13.210938 43.082031 L 25.0625 43.082031 C 25.011719 42.664062 24.921875 42.136719 24.941406 41.730469 L 22.585938 41.730469 C 22.15625 41.730469 21.804688 41.378906 21.804688 40.949219 C 21.804688 38.09375 19.402344 35.839844 16.539062 35.839844 C 16.105469 35.839844 15.757812 35.492188 15.757812 35.0625 L 15.757812 21.332031 C 15.757812 20.902344 16.105469 20.554688 16.539062 20.554688 C 19.402344 20.554688 21.804688 18.300781 21.804688 15.445312 C 21.804688 15.015625 22.15625 14.664062 22.585938 14.664062 L 52.410156 14.664062 C 52.839844 14.664062 53.191406 15.015625 53.191406 15.445312 C 53.191406 18.300781 55.59375 20.554688 58.457031 20.554688 C 58.890625 20.554688 59.238281 20.902344 59.238281 21.332031 L 59.238281 35.0625 C 59.238281 35.492188 58.890625 35.839844 58.457031 35.839844 C 55.59375 35.839844 53.191406 38.09375 53.191406 40.949219 C 53.191406 41.378906 52.839844 41.730469 52.410156 41.730469 Z M 49.84375 44.640625 C 49.914062 44.828125 50.023438 45 50.167969 45.15625 L 51.386719 46.457031 C 52.503906 47.652344 52.515625 49.496094 51.410156 50.707031 L 50.210938 52.015625 C 49.878906 52.378906 49.753906 52.789062 49.8125 53.273438 L 50.035156 55.039062 C 50.234375 56.65625 49.15625 58.164062 47.550781 58.492188 L 45.808594 58.847656 C 45.335938 58.945312 44.980469 59.207031 44.746094 59.628906 L 43.886719 61.183594 C 43.097656 62.617188 41.347656 63.203125 39.855469 62.523438 L 38.234375 61.789062 C 37.789062 61.585938 37.359375 61.585938 36.914062 61.796875 L 35.300781 62.550781 C 33.820312 63.246094 32.0625 62.683594 31.253906 61.261719 L 30.375 59.714844 C 30.136719 59.285156 29.785156 59.035156 29.304688 58.941406 L 27.558594 58.609375 C 25.949219 58.296875 24.855469 56.8125 25.039062 55.183594 L 25.238281 53.417969 C 25.292969 52.941406 25.152344 52.511719 24.828125 52.164062 L 23.609375 50.867188 C 22.492188 49.667969 22.480469 47.824219 23.585938 46.617188 L 24.785156 45.304688 C 24.964844 45.105469 25.09375 44.882812 25.15625 44.640625 L 12.433594 44.640625 C 12.003906 44.640625 11.652344 44.296875 11.652344 43.863281 L 11.652344 12.527344 C 11.652344 12.101562 12.003906 11.75 12.433594 11.75 L 62.5625 11.75 C 62.996094 11.75 63.34375 12.101562 63.34375 12.527344 L 63.34375 43.863281 C 63.34375 44.292969 62.992188 44.640625 62.5625 44.640625 Z M 43.265625 38.375 L 42.386719 36.828125 C 41.980469 36.105469 41.101562 35.828125 40.351562 36.179688 L 38.742188 36.933594 C 37.890625 37.328125 36.972656 37.335938 36.121094 36.949219 L 34.503906 36.210938 C 33.75 35.871094 32.871094 36.164062 32.472656 36.882812 L 31.613281 38.4375 C 31.160156 39.265625 30.421875 39.804688 29.496094 39.996094 L 27.753906 40.351562 C 26.9375 40.519531 26.40625 41.277344 26.507812 42.089844 L 26.730469 43.855469 C 26.847656 44.78125 26.5625 45.660156 25.929688 46.351562 L 24.730469 47.660156 C 24.175781 48.269531 24.179688 49.199219 24.742188 49.804688 L 25.960938 51.101562 C 26.605469 51.792969 26.890625 52.648438 26.785156 53.585938 L 26.585938 55.355469 C 26.492188 56.175781 27.039062 56.921875 27.851562 57.078125 L 29.597656 57.414062 C 30.519531 57.589844 31.265625 58.125 31.730469 58.945312 L 32.609375 60.492188 C 33.015625 61.210938 33.894531 61.488281 34.644531 61.140625 L 36.253906 60.386719 C 37.105469 59.988281 38.023438 59.980469 38.875 60.371094 L 40.492188 61.105469 C 41.246094 61.445312 42.125 61.15625 42.523438 60.433594 L 43.382812 58.878906 C 43.835938 58.050781 44.574219 57.511719 45.5 57.324219 L 47.242188 56.96875 C 48.046875 56.800781 48.585938 56.058594 48.484375 55.230469 L 48.265625 53.464844 C 48.148438 52.539062 48.433594 51.660156 49.0625 50.96875 L 50.265625 49.65625 C 50.820312 49.050781 50.816406 48.117188 50.25 47.515625 L 49.035156 46.214844 C 48.386719 45.523438 48.109375 44.671875 48.207031 43.730469 L 48.410156 41.964844 C 48.5 41.15625 47.964844 40.398438 47.144531 40.238281 L 45.398438 39.90625 C 44.476562 39.730469 43.730469 39.191406 43.265625 38.375 Z M 43.265625 38.375 " fill-opacity="1" fill-rule="nonzero"/></g></svg>