<svg xmlns="http://www.w3.org/2000/svg" xmlns:xlink="http://www.w3.org/1999/xlink" width="100" zoomAndPan="magnify" viewBox="0 0 75 74.999997" height="100" preserveAspectRatio="xMidYMid meet" version="1.0"><defs><clipPath id="a3545b5a4b"><path d="M 8.675781 13 L 67.175781 13 L 67.175781 61.726562 L 8.675781 61.726562 Z M 8.675781 13 " clip-rule="nonzero"/></clipPath></defs><g clip-path="url(#a3545b5a4b)"><path fill="#ffffff" d="M 67.371094 46.886719 C 67.074219 44.316406 66.664062 41.996094 66.148438 39.996094 C 65.804688 38.605469 64.960938 37.375 63.773438 36.523438 C 61.039062 34.550781 58.191406 33.246094 56.304688 32.503906 C 58.304688 30.34375 59.59375 27.238281 59.59375 23.84375 C 59.59375 17.828125 55.308594 13.113281 49.839844 13.113281 C 44.601562 13.113281 40.460938 17.4375 40.117188 23.082031 C 39.476562 22.941406 38.8125 22.867188 38.132812 22.867188 C 37.449219 22.867188 36.789062 22.941406 36.148438 23.082031 C 35.800781 17.4375 31.664062 13.113281 26.425781 13.113281 C 20.957031 13.113281 16.671875 17.828125 16.671875 23.84375 C 16.671875 27.238281 17.960938 30.34375 19.960938 32.503906 C 18.074219 33.246094 15.226562 34.550781 12.492188 36.519531 C 11.304688 37.371094 10.460938 38.605469 10.117188 39.988281 C 9.601562 41.996094 9.1875 44.316406 8.894531 46.890625 C 8.707031 48.539062 9.707031 50.128906 11.28125 50.664062 C 13.425781 51.378906 16.804688 51.835938 21.308594 52.027344 C 21.0625 53.257812 20.808594 54.789062 20.597656 56.644531 C 20.410156 58.296875 21.414062 59.882812 22.988281 60.417969 C 25.867188 61.390625 30.964844 61.882812 38.128906 61.882812 C 45.296875 61.882812 50.390625 61.390625 53.277344 60.417969 C 54.847656 59.882812 55.851562 58.296875 55.664062 56.640625 C 55.453125 54.789062 55.195312 53.257812 54.953125 52.027344 C 59.457031 51.835938 62.835938 51.378906 64.988281 50.664062 C 66.554688 50.128906 67.558594 48.539062 67.367188 46.886719 Z M 49.839844 15.066406 C 54.289062 15.066406 57.640625 18.839844 57.640625 23.84375 C 57.640625 29.039062 53.996094 33.597656 49.839844 33.597656 C 49.179688 33.597656 48.519531 33.484375 47.871094 33.261719 C 47.753906 28.933594 45.421875 25.324219 42.039062 23.738281 C 42.085938 18.785156 45.421875 15.066406 49.839844 15.066406 Z M 45.933594 33.597656 C 45.933594 38.792969 42.289062 43.351562 38.132812 43.351562 C 33.976562 43.351562 30.328125 38.792969 30.328125 33.597656 C 30.328125 28.59375 33.683594 24.820312 38.132812 24.820312 C 42.582031 24.820312 45.933594 28.59375 45.933594 33.597656 Z M 26.425781 15.066406 C 30.84375 15.066406 34.179688 18.785156 34.226562 23.738281 C 30.84375 25.324219 28.511719 28.933594 28.394531 33.261719 C 27.746094 33.484375 27.085938 33.597656 26.425781 33.597656 C 22.269531 33.597656 18.621094 29.039062 18.621094 23.84375 C 18.621094 18.839844 21.976562 15.066406 26.425781 15.066406 Z M 11.902344 48.816406 C 11.195312 48.578125 10.746094 47.859375 10.828125 47.113281 C 11.117188 44.628906 11.511719 42.394531 12.007812 40.464844 C 12.242188 39.527344 12.816406 38.691406 13.628906 38.105469 C 16.730469 35.871094 19.976562 34.550781 21.621094 33.964844 C 23.050781 34.964844 24.691406 35.550781 26.425781 35.550781 C 27.121094 35.550781 27.8125 35.445312 28.492188 35.261719 C 28.832031 38 29.996094 40.457031 31.664062 42.261719 C 29.777344 43.003906 26.933594 44.308594 24.199219 46.277344 C 23.011719 47.128906 22.171875 48.363281 21.828125 49.734375 C 21.800781 49.84375 21.769531 49.972656 21.738281 50.09375 C 16.15625 49.875 13.304688 49.285156 11.902344 48.816406 Z M 52.652344 58.570312 C 50.808594 59.191406 46.792969 59.933594 38.132812 59.933594 C 29.46875 59.933594 25.453125 59.191406 23.613281 58.570312 C 22.902344 58.332031 22.449219 57.613281 22.535156 56.867188 C 22.898438 53.71875 23.375 51.519531 23.71875 50.21875 C 23.953125 49.28125 24.527344 48.441406 25.339844 47.859375 C 28.4375 45.628906 31.683594 44.308594 33.328125 43.71875 C 34.757812 44.71875 36.398438 45.304688 38.132812 45.304688 C 39.863281 45.304688 41.507812 44.71875 42.933594 43.71875 C 44.582031 44.308594 47.828125 45.628906 50.925781 47.859375 C 51.734375 48.441406 52.3125 49.28125 52.546875 50.234375 C 52.886719 51.523438 53.367188 53.71875 53.726562 56.867188 C 53.8125 57.613281 53.359375 58.332031 52.652344 58.570312 Z M 64.367188 48.816406 C 62.957031 49.285156 60.109375 49.875 54.523438 50.09375 C 54.496094 49.976562 54.464844 49.855469 54.4375 49.75 C 54.09375 48.359375 53.25 47.128906 52.0625 46.277344 C 49.332031 44.308594 46.484375 43.003906 44.597656 42.261719 C 46.265625 40.457031 47.429688 38 47.769531 35.261719 C 48.453125 35.445312 49.144531 35.550781 49.835938 35.550781 C 51.570312 35.550781 53.210938 34.964844 54.640625 33.964844 C 56.285156 34.550781 59.53125 35.871094 62.632812 38.105469 C 63.445312 38.691406 64.023438 39.527344 64.257812 40.472656 C 64.75 42.398438 65.144531 44.628906 65.433594 47.113281 C 65.519531 47.859375 65.066406 48.578125 64.367188 48.816406 Z M 64.367188 48.816406 " fill-opacity="1" fill-rule="nonzero"/></g></svg>