<svg xmlns="http://www.w3.org/2000/svg" xmlns:xlink="http://www.w3.org/1999/xlink" width="100" zoomAndPan="magnify" viewBox="0 0 75 74.999997" height="100" preserveAspectRatio="xMidYMid meet" version="1.0"><defs><clipPath id="1b10fd7f53"><path d="M 14.175781 12.976562 L 62.925781 12.976562 L 62.925781 61.726562 L 14.175781 61.726562 Z M 14.175781 12.976562 " clip-rule="nonzero"/></clipPath></defs><path fill="#ffffff" d="M 33.027344 30.957031 L 34.582031 30.957031 L 34.582031 29.324219 L 33.027344 29.324219 L 33.027344 30.957031 " fill-opacity="1" fill-rule="nonzero"/><path fill="#ffffff" d="M 32.976562 35.863281 L 31.339844 35.863281 L 31.339844 38.3125 L 32.976562 38.3125 L 32.976562 35.863281 " fill-opacity="1" fill-rule="nonzero"/><path fill="#ffffff" d="M 36.246094 35.863281 L 34.609375 35.863281 L 34.609375 38.3125 L 36.246094 38.3125 L 36.246094 35.863281 " fill-opacity="1" fill-rule="nonzero"/><path fill="#ffffff" d="M 39.515625 35.863281 L 37.878906 35.863281 L 37.878906 38.3125 L 39.515625 38.3125 L 39.515625 35.863281 " fill-opacity="1" fill-rule="nonzero"/><path fill="#ffffff" d="M 42.785156 35.863281 L 41.148438 35.863281 L 41.148438 38.3125 L 42.785156 38.3125 L 42.785156 35.863281 " fill-opacity="1" fill-rule="nonzero"/><path fill="#ffffff" d="M 41.148438 23.601562 L 42.785156 23.601562 L 42.785156 21.148438 L 41.148438 21.148438 L 41.148438 23.601562 " fill-opacity="1" fill-rule="nonzero"/><path fill="#ffffff" d="M 44.417969 23.601562 L 46.054688 23.601562 L 46.054688 21.148438 L 44.417969 21.148438 L 44.417969 23.601562 " fill-opacity="1" fill-rule="nonzero"/><path fill="#ffffff" d="M 49.324219 21.148438 L 47.6875 21.148438 L 47.6875 23.601562 L 49.324219 23.601562 L 49.324219 21.148438 " fill-opacity="1" fill-rule="nonzero"/><path fill="#ffffff" d="M 52.59375 21.148438 L 50.957031 21.148438 L 50.957031 23.601562 L 52.59375 23.601562 L 52.59375 21.148438 " fill-opacity="1" fill-rule="nonzero"/><path fill="#ffffff" d="M 41.148438 27.6875 L 42.785156 27.6875 L 42.785156 25.234375 L 41.148438 25.234375 L 41.148438 27.6875 " fill-opacity="1" fill-rule="nonzero"/><path fill="#ffffff" d="M 44.417969 27.6875 L 46.054688 27.6875 L 46.054688 25.234375 L 44.417969 25.234375 L 44.417969 27.6875 " fill-opacity="1" fill-rule="nonzero"/><path fill="#ffffff" d="M 49.324219 25.234375 L 47.6875 25.234375 L 47.6875 27.6875 L 49.324219 27.6875 L 49.324219 25.234375 " fill-opacity="1" fill-rule="nonzero"/><path fill="#ffffff" d="M 52.59375 25.234375 L 50.957031 25.234375 L 50.957031 27.6875 L 52.59375 27.6875 L 52.59375 25.234375 " fill-opacity="1" fill-rule="nonzero"/><path fill="#ffffff" d="M 52.59375 29.324219 L 50.957031 29.324219 L 50.957031 31.773438 L 52.59375 31.773438 L 52.59375 29.324219 " fill-opacity="1" fill-rule="nonzero"/><path fill="#ffffff" d="M 52.59375 33.410156 L 50.957031 33.410156 L 50.957031 35.863281 L 52.59375 35.863281 L 52.59375 33.410156 " fill-opacity="1" fill-rule="nonzero"/><path fill="#ffffff" d="M 46.054688 35.863281 L 44.417969 35.863281 L 44.417969 38.3125 L 46.054688 38.3125 L 46.054688 35.863281 " fill-opacity="1" fill-rule="nonzero"/><path fill="#ffffff" d="M 32.976562 39.949219 L 31.339844 39.949219 L 31.339844 42.402344 L 32.976562 42.402344 L 32.976562 39.949219 " fill-opacity="1" fill-rule="nonzero"/><path fill="#ffffff" d="M 36.246094 39.949219 L 34.609375 39.949219 L 34.609375 42.402344 L 36.246094 42.402344 L 36.246094 39.949219 " fill-opacity="1" fill-rule="nonzero"/><path fill="#ffffff" d="M 37.878906 42.402344 L 39.515625 42.402344 L 39.515625 39.949219 L 37.878906 39.949219 L 37.878906 42.402344 " fill-opacity="1" fill-rule="nonzero"/><path fill="#ffffff" d="M 41.148438 42.402344 L 42.785156 42.402344 L 42.785156 39.949219 L 41.148438 39.949219 L 41.148438 42.402344 " fill-opacity="1" fill-rule="nonzero"/><path fill="#ffffff" d="M 44.417969 42.402344 L 46.054688 42.402344 L 46.054688 39.949219 L 44.417969 39.949219 L 44.417969 42.402344 " fill-opacity="1" fill-rule="nonzero"/><path fill="#ffffff" d="M 32.976562 44.035156 L 31.339844 44.035156 L 31.339844 46.488281 L 32.976562 46.488281 L 32.976562 44.035156 " fill-opacity="1" fill-rule="nonzero"/><path fill="#ffffff" d="M 36.246094 44.035156 L 34.609375 44.035156 L 34.609375 46.488281 L 36.246094 46.488281 L 36.246094 44.035156 " fill-opacity="1" fill-rule="nonzero"/><path fill="#ffffff" d="M 37.878906 46.488281 L 39.515625 46.488281 L 39.515625 44.035156 L 37.878906 44.035156 L 37.878906 46.488281 " fill-opacity="1" fill-rule="nonzero"/><path fill="#ffffff" d="M 41.148438 46.488281 L 42.785156 46.488281 L 42.785156 44.035156 L 41.148438 44.035156 L 41.148438 46.488281 " fill-opacity="1" fill-rule="nonzero"/><path fill="#ffffff" d="M 44.417969 46.488281 L 46.054688 46.488281 L 46.054688 44.035156 L 44.417969 44.035156 L 44.417969 46.488281 " fill-opacity="1" fill-rule="nonzero"/><path fill="#ffffff" d="M 31.339844 50.574219 L 32.976562 50.574219 L 32.976562 48.121094 L 31.339844 48.121094 L 31.339844 50.574219 " fill-opacity="1" fill-rule="nonzero"/><path fill="#ffffff" d="M 34.609375 50.574219 L 36.246094 50.574219 L 36.246094 48.121094 L 34.609375 48.121094 L 34.609375 50.574219 " fill-opacity="1" fill-rule="nonzero"/><path fill="#ffffff" d="M 21.53125 34.226562 L 23.167969 34.226562 L 23.167969 31.773438 L 21.53125 31.773438 L 21.53125 34.226562 " fill-opacity="1" fill-rule="nonzero"/><path fill="#ffffff" d="M 26.4375 31.773438 L 24.800781 31.773438 L 24.800781 34.226562 L 26.4375 34.226562 L 26.4375 31.773438 " fill-opacity="1" fill-rule="nonzero"/><path fill="#ffffff" d="M 21.53125 30.140625 L 23.167969 30.140625 L 23.167969 27.6875 L 21.53125 27.6875 L 21.53125 30.140625 " fill-opacity="1" fill-rule="nonzero"/><path fill="#ffffff" d="M 26.4375 27.6875 L 24.800781 27.6875 L 24.800781 30.140625 L 26.4375 30.140625 L 26.4375 27.6875 " fill-opacity="1" fill-rule="nonzero"/><path fill="#ffffff" d="M 21.53125 54.660156 L 23.167969 54.660156 L 23.167969 52.210938 L 21.53125 52.210938 L 21.53125 54.660156 " fill-opacity="1" fill-rule="nonzero"/><path fill="#ffffff" d="M 26.4375 52.210938 L 24.800781 52.210938 L 24.800781 54.660156 L 26.4375 54.660156 L 26.4375 52.210938 " fill-opacity="1" fill-rule="nonzero"/><path fill="#ffffff" d="M 21.53125 38.3125 L 23.167969 38.3125 L 23.167969 35.863281 L 21.53125 35.863281 L 21.53125 38.3125 " fill-opacity="1" fill-rule="nonzero"/><path fill="#ffffff" d="M 26.4375 35.863281 L 24.800781 35.863281 L 24.800781 38.3125 L 26.4375 38.3125 L 26.4375 35.863281 " fill-opacity="1" fill-rule="nonzero"/><path fill="#ffffff" d="M 21.53125 42.402344 L 23.167969 42.402344 L 23.167969 39.949219 L 21.53125 39.949219 L 21.53125 42.402344 " fill-opacity="1" fill-rule="nonzero"/><path fill="#ffffff" d="M 26.4375 39.949219 L 24.800781 39.949219 L 24.800781 42.402344 L 26.4375 42.402344 L 26.4375 39.949219 " fill-opacity="1" fill-rule="nonzero"/><path fill="#ffffff" d="M 21.53125 46.488281 L 23.167969 46.488281 L 23.167969 44.035156 L 21.53125 44.035156 L 21.53125 46.488281 " fill-opacity="1" fill-rule="nonzero"/><path fill="#ffffff" d="M 26.4375 44.035156 L 24.800781 44.035156 L 24.800781 46.488281 L 26.4375 46.488281 L 26.4375 44.035156 " fill-opacity="1" fill-rule="nonzero"/><path fill="#ffffff" d="M 21.53125 50.574219 L 23.167969 50.574219 L 23.167969 48.121094 L 21.53125 48.121094 L 21.53125 50.574219 " fill-opacity="1" fill-rule="nonzero"/><path fill="#ffffff" d="M 26.4375 48.121094 L 24.800781 48.121094 L 24.800781 50.574219 L 26.4375 50.574219 L 26.4375 48.121094 " fill-opacity="1" fill-rule="nonzero"/><path fill="#ffffff" d="M 37.878906 50.574219 L 39.515625 50.574219 L 39.515625 48.121094 L 37.878906 48.121094 L 37.878906 50.574219 " fill-opacity="1" fill-rule="nonzero"/><path fill="#ffffff" d="M 41.148438 50.574219 L 42.785156 50.574219 L 42.785156 48.121094 L 41.148438 48.121094 L 41.148438 50.574219 " fill-opacity="1" fill-rule="nonzero"/><path fill="#ffffff" d="M 44.417969 50.574219 L 46.054688 50.574219 L 46.054688 48.121094 L 44.417969 48.121094 L 44.417969 50.574219 " fill-opacity="1" fill-rule="nonzero"/><path fill="#ffffff" d="M 50.957031 46.488281 L 52.59375 46.488281 L 52.59375 44.035156 L 50.957031 44.035156 L 50.957031 46.488281 " fill-opacity="1" fill-rule="nonzero"/><path fill="#ffffff" d="M 54.226562 46.488281 L 55.863281 46.488281 L 55.863281 44.035156 L 54.226562 44.035156 L 54.226562 46.488281 " fill-opacity="1" fill-rule="nonzero"/><path fill="#ffffff" d="M 50.957031 50.574219 L 52.59375 50.574219 L 52.59375 48.121094 L 50.957031 48.121094 L 50.957031 50.574219 " fill-opacity="1" fill-rule="nonzero"/><path fill="#ffffff" d="M 54.226562 50.574219 L 55.863281 50.574219 L 55.863281 48.121094 L 54.226562 48.121094 L 54.226562 50.574219 " fill-opacity="1" fill-rule="nonzero"/><path fill="#ffffff" d="M 50.957031 54.660156 L 52.59375 54.660156 L 52.59375 52.210938 L 50.957031 52.210938 L 50.957031 54.660156 " fill-opacity="1" fill-rule="nonzero"/><path fill="#ffffff" d="M 54.226562 54.660156 L 55.863281 54.660156 L 55.863281 52.210938 L 54.226562 52.210938 L 54.226562 54.660156 " fill-opacity="1" fill-rule="nonzero"/><g clip-path="url(#1b10fd7f53)"><path fill="#ffffff" d="M 54.226562 60.382812 L 54.226562 57.929688 L 52.59375 57.929688 L 52.59375 60.382812 L 49.324219 60.382812 L 49.324219 40.765625 L 57.496094 40.765625 L 57.496094 60.382812 Z M 37.878906 60.382812 L 37.878906 57.113281 L 39.515625 57.113281 L 39.515625 60.382812 Z M 39.515625 29.324219 L 39.515625 17.878906 L 54.226562 17.878906 L 54.226562 39.132812 L 52.59375 39.132812 L 52.59375 37.496094 L 50.957031 37.496094 L 50.957031 39.132812 L 49.324219 39.132812 L 49.324219 30.140625 C 49.324219 29.6875 48.957031 29.324219 48.503906 29.324219 Z M 23.167969 57.929688 L 23.167969 60.382812 L 19.894531 60.382812 L 19.894531 26.054688 L 28.070312 26.054688 L 28.070312 60.382812 L 24.800781 60.382812 L 24.800781 57.929688 Z M 59.132812 39.949219 C 59.132812 39.496094 58.765625 39.132812 58.3125 39.132812 L 55.863281 39.132812 L 55.863281 17.0625 C 55.863281 16.609375 55.496094 16.246094 55.042969 16.246094 L 50.957031 16.246094 L 50.957031 14.609375 L 49.324219 14.609375 L 49.324219 16.246094 L 47.6875 16.246094 L 47.6875 12.976562 L 46.054688 12.976562 L 46.054688 16.246094 L 38.695312 16.246094 C 38.246094 16.246094 37.878906 16.609375 37.878906 17.0625 L 37.878906 29.324219 L 36.21875 29.324219 L 36.21875 30.957031 L 47.6875 30.957031 L 47.6875 60.382812 L 41.148438 60.382812 L 41.148438 56.296875 C 41.148438 55.84375 40.78125 55.480469 40.332031 55.480469 L 37.0625 55.480469 C 36.609375 55.480469 36.246094 55.84375 36.246094 56.296875 L 36.246094 60.382812 L 29.707031 60.382812 L 29.707031 30.957031 L 31.394531 30.957031 L 31.394531 29.324219 L 29.707031 29.324219 L 29.707031 25.234375 C 29.707031 24.785156 29.339844 24.417969 28.886719 24.417969 L 26.4375 24.417969 L 26.4375 21.148438 L 24.800781 21.148438 L 24.800781 24.417969 L 23.167969 24.417969 L 23.167969 22.785156 L 21.53125 22.785156 L 21.53125 24.417969 L 19.078125 24.417969 C 18.628906 24.417969 18.261719 24.785156 18.261719 25.234375 L 18.261719 60.382812 L 14.175781 60.382812 L 14.175781 62.019531 L 63.21875 62.019531 L 63.21875 60.382812 L 59.132812 60.382812 L 59.132812 39.949219 " fill-opacity="1" fill-rule="nonzero"/></g></svg>