<svg xmlns="http://www.w3.org/2000/svg" xmlns:xlink="http://www.w3.org/1999/xlink" width="100" zoomAndPan="magnify" viewBox="0 0 75 74.999997" height="100" preserveAspectRatio="xMidYMid meet" version="1.0"><defs><clipPath id="b3517ba92f"><path d="M 6.472656 21.214844 L 22 21.214844 L 22 50 L 6.472656 50 Z M 6.472656 21.214844 " clip-rule="nonzero"/></clipPath><clipPath id="dc62cd31d9"><path d="M 54 22 L 70.222656 22 L 70.222656 51 L 54 51 Z M 54 22 " clip-rule="nonzero"/></clipPath><clipPath id="227383d792"><path d="M 21 41 L 42 41 L 42 56.464844 L 21 56.464844 Z M 21 41 " clip-rule="nonzero"/></clipPath></defs><path fill="#100f0d" d="M 38.679688 35.269531 C 39.648438 35.269531 40.578125 35.863281 41.449219 37.039062 C 41.660156 37.34375 46.222656 43.835938 52.40625 40.234375 L 49.59375 33.738281 L 41.570312 31.863281 C 40.203125 31.589844 39.328125 31.519531 38.398438 31.921875 L 35.1875 33.320312 C 34.160156 33.765625 33.390625 34.632812 33.074219 35.699219 L 32.226562 38.578125 C 32.144531 38.855469 32.265625 39.15625 32.511719 39.277344 C 33.109375 39.566406 33.660156 39.625 34.140625 39.441406 C 34.820312 39.1875 35.40625 38.46875 35.898438 37.300781 C 35.90625 37.28125 35.914062 37.265625 35.917969 37.25 C 36.015625 37.058594 36.910156 35.402344 38.492188 35.277344 C 38.554688 35.269531 38.621094 35.269531 38.679688 35.269531 Z M 48.6875 42.734375 C 43.695312 42.734375 40.324219 37.914062 40.28125 37.847656 C 39.875 37.300781 39.234375 36.632812 38.609375 36.679688 C 37.953125 36.730469 37.382812 37.53125 37.203125 37.867188 C 36.558594 39.390625 35.703125 40.367188 34.644531 40.761719 C 33.792969 41.078125 32.839844 41.003906 31.882812 40.542969 C 31.007812 40.117188 30.578125 39.125 30.855469 38.183594 L 31.707031 35.304688 C 32.140625 33.835938 33.195312 32.644531 34.613281 32.03125 L 37.824219 30.632812 C 39.222656 30.027344 40.488281 30.210938 41.878906 30.492188 L 50.269531 32.449219 C 50.492188 32.503906 50.675781 32.652344 50.761719 32.859375 L 53.957031 40.230469 C 54.09375 40.542969 53.984375 40.90625 53.699219 41.09375 C 51.910156 42.28125 50.222656 42.734375 48.6875 42.734375 " fill-opacity="1" fill-rule="nonzero"/><path fill="#100f0d" d="M 47.804688 42.699219 L 49.832031 45.492188 L 54.105469 44.152344 L 53.003906 41.613281 C 51.171875 42.804688 49.214844 42.878906 47.804688 42.699219 Z M 49.554688 47.023438 C 49.332031 47.023438 49.113281 46.917969 48.976562 46.726562 L 45.523438 41.976562 C 45.339844 41.722656 45.34375 41.375 45.542969 41.128906 C 45.742188 40.882812 46.082031 40.796875 46.375 40.914062 C 46.523438 40.976562 50.050781 42.355469 52.835938 39.976562 C 53.003906 39.828125 53.238281 39.773438 53.464844 39.820312 C 53.683594 39.871094 53.867188 40.023438 53.957031 40.230469 L 55.726562 44.3125 C 55.804688 44.496094 55.800781 44.703125 55.71875 44.882812 C 55.632812 45.0625 55.476562 45.199219 55.285156 45.257812 L 49.773438 46.988281 C 49.703125 47.011719 49.628906 47.023438 49.554688 47.023438 " fill-opacity="1" fill-rule="nonzero"/><g clip-path="url(#b3517ba92f)"><path fill="#100f0d" d="M 12.335938 49.351562 C 12.25 49.351562 12.164062 49.335938 12.074219 49.300781 L 7.179688 47.386719 C 6.8125 47.242188 6.636719 46.832031 6.777344 46.472656 C 6.925781 46.109375 7.339844 45.933594 7.707031 46.078125 L 11.945312 47.734375 L 20.179688 27.878906 L 7.175781 22.671875 C 6.8125 22.527344 6.632812 22.117188 6.78125 21.757812 C 6.929688 21.394531 7.34375 21.222656 7.710938 21.371094 L 21.378906 26.839844 C 21.554688 26.910156 21.695312 27.046875 21.769531 27.21875 C 21.84375 27.390625 21.84375 27.585938 21.769531 27.757812 L 12.996094 48.914062 C 12.882812 49.183594 12.621094 49.351562 12.335938 49.351562 " fill-opacity="1" fill-rule="nonzero"/></g><path fill="#100f0d" d="M 21.109375 45.292969 C 21.023438 45.292969 20.9375 45.277344 20.851562 45.242188 L 14.734375 42.894531 C 14.367188 42.753906 14.1875 42.347656 14.332031 41.984375 C 14.472656 41.621094 14.882812 41.441406 15.253906 41.582031 L 20.726562 43.6875 L 25.714844 32.175781 L 20.125 29.851562 C 19.761719 29.699219 19.59375 29.285156 19.742188 28.929688 C 19.898438 28.570312 20.316406 28.402344 20.679688 28.550781 L 26.929688 31.152344 C 27.105469 31.222656 27.242188 31.363281 27.3125 31.535156 C 27.382812 31.710938 27.382812 31.902344 27.308594 32.078125 L 21.765625 44.867188 C 21.652344 45.132812 21.386719 45.292969 21.109375 45.292969 " fill-opacity="1" fill-rule="nonzero"/><g clip-path="url(#dc62cd31d9)"><path fill="#100f0d" d="M 64.421875 50.6875 C 64.144531 50.6875 63.875 50.523438 63.761719 50.25 L 54.988281 29.097656 C 54.917969 28.921875 54.917969 28.726562 54.992188 28.554688 C 55.066406 28.382812 55.207031 28.246094 55.382812 28.175781 L 69.046875 22.703125 C 69.414062 22.558594 69.828125 22.734375 69.976562 23.09375 C 70.125 23.453125 69.949219 23.863281 69.585938 24.011719 L 56.582031 29.214844 L 64.816406 49.070312 L 69.054688 47.414062 C 69.417969 47.269531 69.835938 47.445312 69.980469 47.808594 C 70.125 48.171875 69.945312 48.578125 69.578125 48.722656 L 64.683594 50.636719 C 64.597656 50.671875 64.511719 50.6875 64.421875 50.6875 " fill-opacity="1" fill-rule="nonzero"/></g><path fill="#100f0d" d="M 55.648438 46.628906 C 55.371094 46.628906 55.109375 46.46875 54.992188 46.199219 L 49.453125 33.414062 C 49.378906 33.242188 49.375 33.046875 49.449219 32.875 C 49.515625 32.699219 49.65625 32.5625 49.832031 32.488281 L 56.082031 29.890625 C 56.441406 29.738281 56.863281 29.90625 57.015625 30.265625 C 57.167969 30.621094 56.996094 31.039062 56.636719 31.1875 L 51.042969 33.511719 L 56.035156 45.023438 L 61.507812 42.917969 C 61.875 42.777344 62.289062 42.957031 62.429688 43.320312 C 62.574219 43.683594 62.390625 44.089844 62.023438 44.234375 L 55.910156 46.582031 C 55.820312 46.613281 55.734375 46.628906 55.648438 46.628906 " fill-opacity="1" fill-rule="nonzero"/><path fill="#100f0d" d="M 48.890625 51 C 48.167969 51 47.480469 50.707031 46.972656 50.175781 L 40.445312 43.339844 C 40.175781 43.054688 40.191406 42.609375 40.476562 42.34375 C 40.761719 42.078125 41.214844 42.089844 41.484375 42.371094 L 48.011719 49.210938 C 48.308594 49.523438 48.726562 49.652344 49.152344 49.5625 C 49.574219 49.472656 49.902344 49.1875 50.046875 48.785156 C 50.160156 48.464844 50.101562 48.121094 49.890625 47.859375 L 45.136719 41.976562 C 44.890625 41.667969 44.941406 41.226562 45.25 40.984375 C 45.558594 40.742188 46.003906 40.792969 46.25 41.097656 L 51.003906 46.980469 C 51.523438 47.625 51.671875 48.472656 51.394531 49.25 C 51.085938 50.121094 50.355469 50.75 49.445312 50.941406 C 49.257812 50.980469 49.074219 51 48.890625 51 " fill-opacity="1" fill-rule="nonzero"/><path fill="#100f0d" d="M 45.628906 53.324219 C 44.664062 53.324219 43.742188 52.9375 43.054688 52.230469 L 37.5625 46.558594 C 37.292969 46.277344 37.300781 45.828125 37.585938 45.5625 C 37.871094 45.292969 38.324219 45.300781 38.59375 45.582031 L 44.085938 51.257812 C 44.617188 51.804688 45.378906 52.027344 46.128906 51.859375 C 46.859375 51.691406 47.425781 51.179688 47.65625 50.484375 L 47.679688 50.402344 C 47.796875 50.027344 48.195312 49.820312 48.570312 49.929688 C 48.949219 50.046875 49.160156 50.4375 49.042969 50.808594 L 49.011719 50.914062 C 48.632812 52.085938 47.671875 52.953125 46.449219 53.230469 C 46.175781 53.292969 45.902344 53.324219 45.628906 53.324219 " fill-opacity="1" fill-rule="nonzero"/><path fill="#100f0d" d="M 42.097656 55.398438 C 42.03125 55.398438 41.96875 55.398438 41.90625 55.394531 C 40.992188 55.347656 40.125 54.917969 39.460938 54.1875 L 34.917969 49.207031 C 34.652344 48.921875 34.679688 48.472656 34.96875 48.210938 C 35.265625 47.953125 35.714844 47.976562 35.980469 48.265625 L 40.519531 53.246094 C 40.925781 53.6875 41.457031 53.960938 41.984375 53.988281 C 42.839844 54.035156 43.578125 53.558594 44.1875 52.574219 C 44.394531 52.242188 44.832031 52.136719 45.167969 52.339844 C 45.507812 52.542969 45.613281 52.976562 45.40625 53.308594 C 44.355469 55.011719 43.0625 55.398438 42.097656 55.398438 " fill-opacity="1" fill-rule="nonzero"/><path fill="#100f0d" d="M 35.730469 33.015625 C 35.679688 33.015625 35.625 33.011719 35.574219 33 C 31.648438 32.113281 26.761719 32.496094 26.710938 32.503906 C 26.316406 32.542969 25.972656 32.246094 25.941406 31.859375 C 25.90625 31.46875 26.199219 31.128906 26.59375 31.097656 C 26.800781 31.082031 31.75 30.691406 35.890625 31.625 C 36.277344 31.714844 36.515625 32.09375 36.425781 32.46875 C 36.351562 32.796875 36.058594 33.015625 35.730469 33.015625 " fill-opacity="1" fill-rule="nonzero"/><g clip-path="url(#227383d792)"><path fill="#100f0d" d="M 38.625 56.492188 C 37.964844 56.492188 37.320312 56.242188 36.828125 55.777344 L 34.699219 53.757812 C 27.980469 47.261719 21.738281 42.972656 21.675781 42.925781 C 21.351562 42.707031 21.269531 42.269531 21.492188 41.949219 C 21.71875 41.628906 22.164062 41.546875 22.488281 41.769531 C 22.550781 41.8125 28.894531 46.171875 35.695312 52.75 L 37.816406 54.761719 C 38.136719 55.0625 38.582031 55.160156 39.011719 55.019531 C 39.199219 54.957031 39.652344 54.75 39.746094 54.179688 C 39.789062 53.792969 40.148438 53.503906 40.539062 53.546875 C 40.929688 53.589844 41.210938 53.925781 41.167969 54.3125 L 41.152344 54.398438 C 41.003906 55.320312 40.371094 56.054688 39.464844 56.355469 C 39.1875 56.445312 38.90625 56.492188 38.625 56.492188 " fill-opacity="1" fill-rule="nonzero"/></g><path fill="#100f0d" d="M 26.300781 48.746094 C 25.785156 48.746094 25.265625 48.578125 24.835938 48.226562 C 24.378906 47.859375 24.101562 47.332031 24.054688 46.746094 C 24.007812 46.164062 24.199219 45.601562 24.59375 45.164062 L 25.15625 44.546875 C 25.417969 44.257812 25.867188 44.234375 26.164062 44.492188 C 26.457031 44.753906 26.480469 45.199219 26.214844 45.488281 L 25.65625 46.105469 C 25.523438 46.253906 25.460938 46.441406 25.476562 46.636719 C 25.492188 46.835938 25.582031 47.015625 25.738281 47.136719 C 26.109375 47.4375 26.648438 47.394531 26.964844 47.039062 L 27.511719 46.433594 C 27.773438 46.140625 28.222656 46.113281 28.519531 46.371094 C 28.8125 46.628906 28.839844 47.074219 28.582031 47.367188 L 28.035156 47.976562 C 27.574219 48.484375 26.941406 48.746094 26.300781 48.746094 " fill-opacity="1" fill-rule="nonzero"/><path fill="#100f0d" d="M 28.394531 51.949219 C 27.8125 51.949219 27.230469 51.746094 26.753906 51.339844 C 26.25 50.90625 25.945312 50.308594 25.894531 49.648438 C 25.847656 48.988281 26.0625 48.351562 26.5 47.851562 L 27.644531 46.550781 C 27.902344 46.257812 28.351562 46.226562 28.652344 46.480469 C 28.949219 46.734375 28.980469 47.179688 28.722656 47.476562 L 27.578125 48.773438 C 27.390625 48.988281 27.296875 49.265625 27.320312 49.546875 C 27.339844 49.832031 27.46875 50.085938 27.6875 50.273438 C 28.128906 50.652344 28.789062 50.613281 29.183594 50.191406 L 30.414062 48.867188 C 30.675781 48.582031 31.128906 48.5625 31.417969 48.824219 C 31.710938 49.085938 31.730469 49.535156 31.464844 49.820312 L 30.238281 51.140625 C 29.742188 51.675781 29.066406 51.949219 28.394531 51.949219 " fill-opacity="1" fill-rule="nonzero"/><path fill="#100f0d" d="M 31.453125 53.839844 C 30.84375 53.839844 30.234375 53.621094 29.757812 53.183594 C 28.757812 52.265625 28.699219 50.714844 29.617188 49.722656 L 30.414062 48.867188 C 30.675781 48.582031 31.128906 48.5625 31.417969 48.824219 C 31.710938 49.085938 31.730469 49.535156 31.464844 49.820312 L 30.671875 50.675781 C 30.277344 51.097656 30.304688 51.761719 30.730469 52.152344 C 31.15625 52.542969 31.828125 52.523438 32.226562 52.105469 L 33.054688 51.234375 C 33.324219 50.953125 33.777344 50.9375 34.066406 51.203125 C 34.351562 51.472656 34.363281 51.917969 34.09375 52.199219 L 33.265625 53.070312 C 32.777344 53.582031 32.113281 53.839844 31.453125 53.839844 " fill-opacity="1" fill-rule="nonzero"/><path fill="#100f0d" d="M 34.367188 55.660156 C 33.773438 55.660156 33.175781 55.445312 32.714844 55.011719 C 31.769531 54.117188 31.726562 52.625 32.628906 51.683594 L 32.941406 51.355469 C 33.210938 51.070312 33.660156 51.058594 33.949219 51.324219 C 34.234375 51.589844 34.25 52.035156 33.976562 52.320312 L 33.664062 52.648438 C 33.304688 53.03125 33.316406 53.632812 33.703125 53.992188 C 34.082031 54.351562 34.691406 54.339844 35.058594 53.96875 L 35.496094 53.527344 C 35.769531 53.25 36.222656 53.246094 36.503906 53.515625 C 36.785156 53.789062 36.789062 54.234375 36.515625 54.511719 L 36.078125 54.953125 C 35.613281 55.425781 34.988281 55.660156 34.367188 55.660156 " fill-opacity="1" fill-rule="nonzero"/></svg>